<svg width="20" height="20" viewBox="0 0 20 20" fill="none" xmlns="http://www.w3.org/2000/svg">
<path d="M7.50002 14.1666H5.83335C4.72828 14.1666 3.66848 13.7277 2.88708 12.9463C2.10567 12.1649 1.66669 11.105 1.66669 9.99998C1.66669 8.89491 2.10567 7.8351 2.88708 7.0537C3.66848 6.2723 4.72828 5.83331 5.83335 5.83331H7.50002M12.5 5.83331H14.1667C15.2718 5.83331 16.3316 6.2723 17.113 7.0537C17.8944 7.8351 18.3334 8.89491 18.3334 9.99998C18.3334 11.105 17.8944 12.1649 17.113 12.9463C16.3316 13.7277 15.2718 14.1666 14.1667 14.1666H12.5M6.66669 9.99998H13.3334" stroke="#07090D" stroke-linecap="round" stroke-linejoin="round"/>
</svg>
