<svg width="20" height="20" viewBox="0 0 20 20" fill="none" xmlns="http://www.w3.org/2000/svg">
<path d="M7.49998 11.6666L3.33331 7.49998M3.33331 7.49998L7.49998 3.33331M3.33331 7.49998H12.0833C12.6852 7.49998 13.2812 7.61853 13.8373 7.84887C14.3934 8.0792 14.8986 8.4168 15.3242 8.84241C15.7498 9.26801 16.0874 9.77327 16.3178 10.3293C16.5481 10.8854 16.6666 11.4814 16.6666 12.0833C16.6666 12.6852 16.5481 13.2812 16.3178 13.8373C16.0874 14.3934 15.7498 14.8986 15.3242 15.3242C14.8986 15.7498 14.3934 16.0874 13.8373 16.3178C13.2812 16.5481 12.6852 16.6666 12.0833 16.6666H9.16665" stroke="#07090D" stroke-linecap="round" stroke-linejoin="round"/>
</svg>
