<svg width="20" height="20" viewBox="0 0 20 20" fill="none" xmlns="http://www.w3.org/2000/svg">
<path d="M14.1667 10.8334L10.8333 18.3334C10.1703 18.3334 9.5344 18.07 9.06556 17.6011C8.59672 17.1323 8.33333 16.4964 8.33333 15.8334V12.5H3.61666C3.37507 12.5028 3.13577 12.4529 2.91535 12.354C2.69493 12.2551 2.49865 12.1094 2.34011 11.9271C2.18158 11.7448 2.06457 11.5302 1.99721 11.2981C1.92985 11.0661 1.91374 10.8222 1.94999 10.5833L3.09999 3.08335C3.16026 2.68593 3.36213 2.32368 3.66841 2.06334C3.97468 1.80301 4.36472 1.66214 4.76666 1.66668H14.1667M14.1667 10.8334V1.66668M14.1667 10.8334H16.3917C16.8633 10.8417 17.3216 10.6766 17.6795 10.3693C18.0374 10.0621 18.2701 9.63413 18.3333 9.16668V3.33335C18.2701 2.8659 18.0374 2.43793 17.6795 2.1307C17.3216 1.82346 16.8633 1.65834 16.3917 1.66668H14.1667" stroke="#36393D" stroke-linecap="round" stroke-linejoin="round"/>
</svg>
