<svg width="21" height="21" viewBox="0 0 21 21" fill="none" xmlns="http://www.w3.org/2000/svg">
<path d="M6.08238 9.17841L9.41571 1.67841C10.0788 1.67841 10.7146 1.9418 11.1835 2.41064C11.6523 2.87948 11.9157 3.51536 11.9157 4.17841V7.51174H16.6324C16.874 7.509 17.1133 7.55883 17.3337 7.65775C17.5541 7.75668 17.7504 7.90235 17.9089 8.08467C18.0675 8.26699 18.1845 8.48159 18.2518 8.71362C18.3192 8.94564 18.3353 9.18954 18.299 9.42841L17.149 16.9284C17.0888 17.3258 16.8869 17.6881 16.5806 17.9484C16.2744 18.2087 15.8843 18.3496 15.4824 18.3451H6.08238M6.08238 9.17841V18.3451M6.08238 9.17841H3.58238C3.14035 9.17841 2.71643 9.354 2.40387 9.66656C2.09131 9.97912 1.91571 10.403 1.91571 10.8451V16.6784C1.91571 17.1204 2.09131 17.5444 2.40387 17.8569C2.71643 18.1695 3.14035 18.3451 3.58238 18.3451H6.08238" stroke="#36393D" stroke-linecap="round" stroke-linejoin="round"/>
</svg>
